<?xml version="1.0" encoding="UTF-8" standalone="no"?>
<svg
   xmlns:dc="http://purl.org/dc/elements/1.1/"
   xmlns:cc="http://creativecommons.org/ns#"
   xmlns:rdf="http://www.w3.org/1999/02/22-rdf-syntax-ns#"
   xmlns:svg="http://www.w3.org/2000/svg"
   xmlns="http://www.w3.org/2000/svg"
   xmlns:sodipodi="http://sodipodi.sourceforge.net/DTD/sodipodi-0.dtd"
   xmlns:inkscape="http://www.inkscape.org/namespaces/inkscape"
   width="260.99997mm"
   height="89mm"
   viewBox="0 0 260.99996 89"
   version="1.1"
   id="svg8"
   inkscape:version="1.0.1 (3bc2e813f5, 2020-09-07)"
   sodipodi:docname="back panel.svg">
  <defs
     id="defs2">
    <rect
       x="211.09564"
       y="53.504345"
       width="13.330434"
       height="5.4782605"
       id="rect92" />
    <rect
       x="198.13043"
       y="52.226086"
       width="8.217391"
       height="6.2086954"
       id="rect86" />
    <rect
       x="58.799995"
       y="64.643471"
       width="66.834778"
       height="11.686956"
       id="rect1655" />
  </defs>
  <sodipodi:namedview
     id="base"
     pagecolor="#ffffff"
     bordercolor="#666666"
     borderopacity="1.0"
     inkscape:pageopacity="0.0"
     inkscape:pageshadow="2"
     inkscape:zoom="2.1217057"
     inkscape:cx="274.74679"
     inkscape:cy="181.75875"
     inkscape:document-units="mm"
     inkscape:current-layer="layer6"
     inkscape:document-rotation="0"
     showgrid="false"
     inkscape:window-width="1920"
     inkscape:window-height="1027"
     inkscape:window-x="1912"
     inkscape:window-y="-8"
     inkscape:window-maximized="1"
     fit-margin-left="6"
     fit-margin-top="6"
     fit-margin-right="6"
     fit-margin-bottom="6"
     inkscape:snap-global="false"
     showguides="false"
     inkscape:guide-bbox="true">
    <sodipodi:guide
       position="53.614711,-3.7641223"
       orientation="1,0"
       id="guide63" />
    <sodipodi:guide
       position="-14.868576,40.597893"
       orientation="0,-1"
       id="guide65" />
    <sodipodi:guide
       position="-59.044201,22.466498"
       orientation="1,0"
       id="guide976" />
  </sodipodi:namedview>
  <metadata
     id="metadata5">
    <rdf:RDF>
      <cc:Work
         rdf:about="">
        <dc:format>image/svg+xml</dc:format>
        <dc:type
           rdf:resource="http://purl.org/dc/dcmitype/StillImage" />
        <dc:title />
      </cc:Work>
    </rdf:RDF>
  </metadata>
  <g
     inkscape:groupmode="layer"
     id="layer6"
     inkscape:label="back panel"
     style="display:inline"
     transform="translate(31.405504,8.1872562)">
    <path
       id="rect250"
       style="vector-effect:non-scaling-stroke;fill:none;stroke:#008000;stroke-width:0.580852;stroke-miterlimit:12.2"
       d="M -24.868464,-1.8968318 H 222.98001 l 0.32403,0.2705844 V 74.079935 l -0.41989,0.442384 H -24.508985 l -0.606098,-0.538245 V -1.6502127 Z"
       sodipodi:nodetypes="ccccccccc" />
    <g
       id="g203"
       transform="rotate(-90,151.0975,-21.654804)">
      <rect
         style="vector-effect:non-scaling-stroke;fill:none;stroke:#ff00ff;stroke-width:0.251816;stroke-miterlimit:12.2"
         id="rect187"
         width="26.748184"
         height="18.748182"
         x="72.902466"
         y="18.817095"
         ry="2.2108204" />
      <rect
         style="vector-effect:non-scaling-stroke;fill:none;stroke:#008000;stroke-width:0.264189;stroke-miterlimit:12.2"
         id="rect189"
         width="49.735813"
         height="21.735811"
         x="61.408649"
         y="17.32328"
         ry="10.867906" />
      <circle
         style="vector-effect:non-scaling-stroke;fill:none;stroke:#ff00ff;stroke-width:0.367986;stroke-miterlimit:12.2"
         id="path191"
         cx="66.12188"
         cy="28.191187"
         r="1.5140071" />
      <circle
         style="display:inline;vector-effect:non-scaling-stroke;fill:none;stroke:#ff00ff;stroke-width:0.303001;stroke-miterlimit:12.2"
         id="path144-3"
         cx="106.18757"
         cy="28.191187"
         r="1.5137808" />
    </g>
    <path
       id="path205"
       style="vector-effect:non-scaling-stroke;fill:none;stroke:#008000;stroke-width:0.555016;stroke-miterlimit:12.2"
       d="M -22.396301,0.71671782 H 220.50939 l 0.31757,0.25207634 V 71.496645 l -0.41151,0.412125 H -22.043991 l -0.594011,-0.501429 V 0.94646809 Z"
       sodipodi:nodetypes="ccccccccc" />
    <path
       id="rect255-14"
       style="display:inline;vector-effect:non-scaling-stroke;fill:none;stroke:#0000ff;stroke-width:0.137;stroke-miterlimit:12.2;stroke-dasharray:none"
       d="m 68.684904,10.417263 a 23.542176,23.542176 0 0 0 -3.77548,0.48731 v 12.70568 a 11.423224,11.423221 0 0 1 3.77548,-1.04541 z m 2.33681,0.005 v 12.15275 a 11.423224,11.423221 0 0 1 3.774957,1.0852 v -12.7331 a 23.542176,23.542176 0 0 0 -3.774957,-0.50488 z m -8.4491,1.10588 a 23.542176,23.542176 0 0 0 -3.77497,1.59263 v 17.74414 a 11.423224,11.423221 0 0 1 3.77497,-5.77691 z m 14.561387,0.0341 v 13.61208 a 11.423224,11.423221 0 0 1 3.77496,6.09472 v -18.09299 a 23.542176,23.542176 0 0 0 -3.77496,-1.61385 z m -20.673677,2.97346 a 23.542176,23.542176 0 0 0 -3.77497,3.23287 v 32.32826 a 23.542176,23.542176 0 0 0 3.77497,3.2334 z m 26.785967,0.0724 v 38.64983 a 23.542176,23.542176 0 0 0 3.77497,-3.27215 v -32.10541 a 23.542176,23.542176 0 0 0 -3.77497,-3.27215 z m -32.898267,6.06526 a 23.542176,23.542176 0 0 0 -3.77496,9.42681 v 7.66465 a 23.542176,23.542176 0 0 0 3.77496,9.42785 z m 39.010047,0.15399 v 26.21081 a 23.542176,23.542176 0 0 0 3.77548,-9.97045 v -6.26939 a 23.542176,23.542176 0 0 0 -3.77548,-9.97097 z m -8.44911,15.76958 a 11.423224,11.423221 0 0 1 -3.77496,6.09472 v 13.61209 a 23.542176,23.542176 0 0 0 3.77496,-1.61437 z m -22.111317,0.40308 v 17.74517 a 23.542176,23.542176 0 0 0 3.77497,1.59267 v -13.55978 a 11.423224,11.423221 0 0 1 -3.77497,-5.77794 z m 15.999027,7.20576 a 11.423224,11.423221 0 0 1 -3.774957,1.08465 v 12.15275 a 23.542176,23.542176 0 0 0 3.774957,-0.50437 z m -9.887247,0.0496 v 12.70569 a 23.542176,23.542176 0 0 0 3.77548,0.48731 v -12.14711 a 11.423224,11.423221 0 0 1 -3.77548,-1.04593 z" />
    <rect
       style="vector-effect:non-scaling-stroke;fill:none;stroke:#008000;stroke-width:0.477391;stroke-miterlimit:12.2"
       id="rect142"
       width="49.52261"
       height="49.52261"
       x="-14.814428"
       y="11.314742" />
    <g
       id="g177"
       transform="translate(-1.2618327,-2.4393602)">
      <circle
         style="vector-effect:non-scaling-stroke;fill:none;stroke:#ff00ff;stroke-width:0.303001;stroke-miterlimit:12.2"
         id="path144"
         cx="-8.7401342"
         cy="18.564009"
         r="1.5137808" />
      <circle
         style="display:inline;vector-effect:non-scaling-stroke;fill:none;stroke:#ff00ff;stroke-width:0.303001;stroke-miterlimit:12.2"
         id="path144-6"
         cx="31.157553"
         cy="18.564009"
         r="1.5137808" />
      <circle
         style="display:inline;vector-effect:non-scaling-stroke;fill:none;stroke:#ff00ff;stroke-width:0.303001;stroke-miterlimit:12.2"
         id="path144-5"
         cx="-8.7401342"
         cy="58.466805"
         r="1.5137808" />
      <circle
         style="display:inline;vector-effect:non-scaling-stroke;fill:none;stroke:#ff00ff;stroke-width:0.303001;stroke-miterlimit:12.2"
         id="path144-4"
         cx="31.157553"
         cy="58.466805"
         r="1.5137808" />
    </g>
    <circle
       style="vector-effect:non-scaling-stroke;fill:none;stroke:#008000;stroke-width:0.316453;stroke-miterlimit:12.2"
       id="path207"
       cx="9.9468765"
       cy="36.076046"
       r="23.542177" />
    <path
       id="rect1198-2-9"
       style="display:inline;vector-effect:non-scaling-stroke;fill:none;stroke:#0000ff;stroke-width:0.137;stroke-miterlimit:12.2;stroke-dasharray:none"
       d="m 121.66454,13.216512 a 23.542176,23.542176 0 0 0 -4.66431,0.604614 v 12.386323 a 11.817914,11.817914 0 0 1 4.66431,-1.25677 z m 1.34617,0 v 11.734167 a 11.817914,11.817914 0 0 1 4.6638,1.252638 V 13.819576 a 23.542176,23.542176 0 0 0 -4.6638,-0.603064 z m 6.00997,0.958081 v 12.825575 a 11.817914,11.817914 0 0 1 4.66432,6.436299 v -17.31574 a 23.542176,23.542176 0 0 0 -4.66432,-1.946134 z m -13.36662,0.0026 a 23.542176,23.542176 0 0 0 -4.6638,1.947685 v 17.335893 a 11.817914,11.817914 0 0 1 4.6638,-6.45542 z m 19.37711,2.742985 v 39.658041 a 23.542176,23.542176 0 0 0 4.6638,-3.920689 V 20.840853 a 23.542176,23.542176 0 0 0 -4.6638,-3.920691 z m -25.38708,0.0047 a 23.542176,23.542176 0 0 0 -4.66432,3.924308 v 31.800125 a 23.542176,23.542176 0 0 0 4.66432,3.924828 z m 31.39704,5.522143 v 28.604455 a 23.542176,23.542176 0 0 0 4.66432,-11.413773 v -5.776909 a 23.542176,23.542176 0 0 0 -4.66432,-11.413773 z m -37.40753,0.01085 a 23.542176,23.542176 0 0 0 -4.663804,11.462866 v 5.657019 a 23.542176,23.542176 0 0 0 4.663804,11.463383 z m 7.35666,17.579287 v 17.336921 a 23.542176,23.542176 0 0 0 4.6638,1.94769 V 46.493032 a 11.817914,11.817914 0 0 1 -4.6638,-6.455936 z m 22.69474,0.02584 a 11.817914,11.817914 0 0 1 -4.66432,6.435783 v 12.825058 a 23.542176,23.542176 0 0 0 4.66432,-1.94562 z m -16.68477,7.227983 v 12.386318 a 23.542176,23.542176 0 0 0 4.66431,0.6041 V 48.547688 a 11.817914,11.817914 0 0 1 -4.66431,-1.25677 z m 10.67428,0.0041 a 11.817914,11.817914 0 0 1 -4.6638,1.252635 v 11.734163 a 23.542176,23.542176 0 0 0 4.6638,-0.60254 z" />
    <path
       id="rect82-07"
       style="display:inline;vector-effect:non-scaling-stroke;fill:none;stroke:#ff00ff;stroke-width:0.136318;stroke-miterlimit:12.2"
       d="m 9.0448632,12.548406 a 23.542176,23.542176 0 0 0 -4.300511,0.552938 V 25.88351 A 11.671537,11.671537 0 0 1 9.066051,24.688234 V 12.818157 c 0,-0.09181 -0.00865,-0.181509 -0.021188,-0.269751 z m 1.8128108,0.0052 c -0.01206,0.0866 -0.02067,0.174553 -0.02067,0.264583 v 11.869043 a 11.671537,11.671537 0 0 1 4.321701,1.189593 V 13.131833 a 23.542176,23.542176 0 0 0 -4.301029,-0.578259 z m -7.8842733,1.016992 a 23.542176,23.542176 0 0 0 -4.3211829,1.815361 v 18.041793 a 11.671537,11.671537 0 0 1 4.3211829,-6.452835 z m 13.9562543,0.04134 V 26.96461 a 11.671537,11.671537 0 0 1 4.321183,6.411497 V 15.45934 a 23.542176,23.542176 0 0 0 -4.321183,-1.847433 z m -20.0489072,2.839104 a 23.542176,23.542176 0 0 0 -4.3211833,3.685046 v 31.87919 a 23.542176,23.542176 0 0 0 4.3211833,3.684529 z m 26.1415572,0.0894 v 39.07045 a 23.542176,23.542176 0 0 0 4.321183,-3.742407 V 20.282301 a 23.542176,23.542176 0 0 0 -4.321183,-3.74189 z m -32.2342075,5.767605 a 23.542176,23.542176 0 0 0 -4.3211835,11.352797 v 4.830712 A 23.542176,23.542176 0 0 0 -9.2119025,49.8428 Z M 29.114956,22.495118 V 49.655701 A 23.542176,23.542176 0 0 0 33.426838,36.075652 23.542176,23.542176 0 0 0 29.114956,22.495087 Z M -1.3477822,39.22223 v 17.543116 a 23.542176,23.542176 0 0 0 4.3211829,1.814359 V 45.675582 A 11.671537,11.671537 0 0 1 -1.3477822,39.22223 Z m 22.5986202,0.05219 a 11.671537,11.671537 0 0 1 -4.321183,6.411497 v 12.852961 a 23.542176,23.542176 0 0 0 4.321183,-1.846916 z M 4.7443522,46.767507 V 59.049444 A 23.542176,23.542176 0 0 0 9.066051,59.603415 V 47.962783 A 11.671537,11.671537 0 0 1 4.7443522,46.767507 Z m 10.4143508,0.0067 a 11.671537,11.671537 0 0 1 -4.321701,1.189075 v 11.63443 a 23.542176,23.542176 0 0 0 4.321701,-0.578776 z" />
  </g>
</svg>
